<svg xmlns="http://www.w3.org/2000/svg" viewBox="0 0 346 339.96"><defs><style>.cls-1{fill:#7e7e7e;}</style></defs><g id="Laag_1" data-name="Laag 1"><path class="cls-1" d="M160.9,177.86a573.45,573.45,0,0,0,5.24,57.49c.08.54,1.35.4,1.64.39,6.07-.31,12.14-.29,18.2,0a7.5,7.5,0,0,0,2.88-.53c.51-.18,1.64-.56,1.86-1.16,1.56-4.44,1-9.09.54-13.66L189.82,206l-2.93-29.26c-.11-1.07-5.95,0-5.8,1.56L184,207.07l1.44,14.38c.45,4.54,1.15,9.21-.41,13.62l4.74-1.69q-9.72-.47-19.44,0l1.64.39a573.65,573.65,0,0,1-5.24-57.5c0-1-5.86-.06-5.8,1.56Z"/><path class="cls-1" d="M164.21,176.19l-9.06.59-4.77.3a4.2,4.2,0,0,0-.81,0c.38-.63.67.86.77.21a8.58,8.58,0,0,0-.5-2.12A82.29,82.29,0,0,1,148,157.58L144.85,160l17-2.71c1.32-.21,3-.88,3.16-2.45.12-1.39-1.49-2.29-2.73-2.1l-17,2.72c-1.22.19-3.16.89-3.17,2.45a78.55,78.55,0,0,0,2.34,20.6c1.08,4,5.4,3.1,8.6,2.89l10.73-.69c1.33-.08,3-1,3.17-2.45s-1.49-2.18-2.74-2.1Z"/><path class="cls-1" d="M184.76,179.43h12.11c2.17,0,4.62.13,6.16-1.72,1.2-1.43.89-3.12.51-4.8A115.06,115.06,0,0,0,196.08,151c-.75-1.65-2.71-1.71-4.2-1a28.6,28.6,0,0,1-13.11,2.59c-1.41-.07-3.14.38-3.76,1.81a1.9,1.9,0,0,0,1.8,2.56,38,38,0,0,0,17.68-3.37l-4.2-1a112.76,112.76,0,0,1,4.79,12.31c.67,2.06,1.28,4.13,1.83,6.23q.41,1.56.78,3.15a10,10,0,0,0,.32,1.44c.17.45,0,.37,0,.29l1.14-.87c.61-.09.64-.12.1-.09H185.23c-1.3,0-3,1-3.18,2.41s1.52,2,2.71,2Z"/><path class="cls-1" d="M165.24,153.12c-2.94-3.39-3.21-8.23-3.7-12.49a59.34,59.34,0,0,1-.34-13.45,20.93,20.93,0,0,1,4.47-11.42,18.32,18.32,0,0,1,9.13-5.57,38.23,38.23,0,0,1,13.36-1l-1.9-1.77a97.64,97.64,0,0,0,.88,16.39l1-2a11.42,11.42,0,0,1-3.7,1,25.49,25.49,0,0,0-4.94,1.3,10.23,10.23,0,0,0-6.24,7.42c-.76,3.35-.26,6.95,0,10.34q.41,6.34.9,12.68c.11,1.4,2.51,1.35,3.41,1.11,1.28-.35,2.5-1.24,2.39-2.66q-.46-5.85-.84-11.7c-.21-3.15-.63-6.43-.1-9.56a6.87,6.87,0,0,1,1.31-3.26,4.32,4.32,0,0,1,2.67-1.4c3.14-.77,6.16-1.1,9-2.85a2.05,2.05,0,0,0,1-2,90.43,90.43,0,0,1-.82-15.34,1.84,1.84,0,0,0-1.9-1.77c-9.6-.76-20.24.6-27.63,7.32-7.64,6.94-8,17.62-7.12,27.2.51,5.36.75,11.72,4.45,16,1.64,1.89,7.16-.38,5.32-2.5Z"/><path class="cls-1" d="M159.41,83.84c-16.13,1-32.44,3.59-45.85,13.3a56,56,0,0,0-18.13,22.31,110.08,110.08,0,0,0-7.85,27.33,122.68,122.68,0,0,0,5.71,61.33c3.37,9.23,7.89,18.3,14.56,25.59s15.37,12.51,24.58,16.08c19.92,7.72,42,8.1,62.81,4.25,17.88-3.31,36.52-9.77,49.55-23a51.44,51.44,0,0,0,13.28-24.38c2.31-9.62,2.23-19.66,1.37-29.46-.69-7.73-1.43-15.52-2.86-23.15a86.72,86.72,0,0,0-9.29-26.32c-8.66-15.53-22.6-27.58-38.6-35.09a95.73,95.73,0,0,0-39.64-9.08c-3.22,0-6.43.08-9.64.29-1.23.07-3,.88-3.21,2.27s1.57,1.86,2.64,1.79a97.07,97.07,0,0,1,21.46.76,90.33,90.33,0,0,1,17.06,4.45,85.23,85.23,0,0,1,35.53,24.17,76.6,76.6,0,0,1,14.49,25.19,112.54,112.54,0,0,1,5,23.89c2,17.29,4,36-4.31,52.08-7.83,15.08-23.69,23.64-39.32,28.33-18.82,5.65-39.35,7.48-58.68,3.44a78.74,78.74,0,0,1-26.66-10.49,56.16,56.16,0,0,1-18.67-20.5,104.32,104.32,0,0,1-10-27.51,119.9,119.9,0,0,1,1.81-59.3c2.35-8.2,5.45-16.31,10.76-23.09a51.27,51.27,0,0,1,20.91-15.7,77.27,77.27,0,0,1,21.55-5c3-.31,6-.52,9.06-.71,1.23-.08,3-.88,3.21-2.28S160.48,83.77,159.41,83.84Z"/></g></svg>