<svg xmlns="http://www.w3.org/2000/svg" viewBox="0 0 346 339.96"><defs><style>.cls-1{fill:#7e7e7e;}</style></defs><g id="Laag_1" data-name="Laag 1"><path class="cls-1" d="M194.92,127l-1,17.58c-.06,1,.92,1.49,1.83,1.53l18.62.77c1.2.05,3.82-.55,4-2.14l1.06-9.93.55-5.16c.16-1.45.53-3.13-.79-4.16s-3.23-.91-4.78-1-3.34-.24-5-.34q-5.12-.27-10.24-.28c-1.33,0-3.09.39-3.8,1.66s.56,2,1.65,2q4.62,0,9.23.23c1.47.07,2.94.16,4.41.26l2.4.19,1,.09.49,0a.17.17,0,0,1-.18,0c-.08-.27,0,.34,0,.35,0,.28-.06.56-.09.84-.07.73-.15,1.46-.23,2.18l-.49,4.57-1,9.13,4-2.14L198,142.42l1.83,1.52,1-17.58c.08-1.36-1.51-1.62-2.57-1.51s-3.18.8-3.25,2.12Z"/><path class="cls-1" d="M175.24,148.28c-9.38-.07-18.8,5.28-22.05,14.34-1.6,4.46-1.31,9.38-.2,13.92,1,4.07,2.7,8.12,6.5,10.3a24.13,24.13,0,0,0,6.45,2.26,39.87,39.87,0,0,0,7.83,1.21,22.93,22.93,0,0,0,14.11-3.81c3.67-2.6,5.73-6.94,7.12-11.1s2.06-9.08.31-13.3c-1.83-4.4-5.7-7.42-9.56-10a27.09,27.09,0,0,0-6.46-3.49,12.73,12.73,0,0,0-8.75.34c-.68.27-2.39,1.14-1.61,2.07s3,.23,3.79-.09c1-.4,3,.65,3.87,1.08a36.31,36.31,0,0,1,4.57,2.8c2.81,1.92,5.71,4.13,7.49,7.09a15.33,15.33,0,0,1,1.5,11,27.29,27.29,0,0,1-4.34,10.47,9.6,9.6,0,0,1-7.51,4,30.87,30.87,0,0,1-11.9-2.08c-3.63-1.35-5.66-4.14-6.87-7.73A27.22,27.22,0,0,1,158,165.81c.93-7.63,6.81-14.66,14.88-14.6,1.21,0,3.1-.45,3.84-1.51s-.66-1.41-1.49-1.42Z"/><path class="cls-1" d="M126.64,159.72q8.1.15,16.21.35c1.3,0,3.09-.42,3.82-1.62s-.61-1.83-1.61-1.85q-8.12-.21-16.22-.35c-1.3,0-3.09.42-3.81,1.62s.6,1.83,1.61,1.85Z"/><path class="cls-1" d="M124.43,159.8q0,8.08-.26,16.19c-.14,5.07-.43,10.16-.21,15.24a51.83,51.83,0,0,0,2.44,14c.92,2.78,2.24,5.89,4.6,7.77,3.34,2.66,8.44,2.79,12.5,3a81.06,81.06,0,0,0,8.25-.11c6.45-.32,12.92-.38,19.37-.48,13.07-.19,26.14-.28,39.21-.37,1.21,0,3.09-.45,3.86-1.46s-.7-1.27-1.45-1.26c-18.86.12-37.76,0-56.61.76-1.82.07-3.64.24-5.46.28a55.39,55.39,0,0,1-7.51-.36,15,15,0,0,1-6-1.57c-2.07-1.21-3.3-3.5-4.19-5.64a45.88,45.88,0,0,1-3.06-13.69,137.43,137.43,0,0,1,0-15.59q.26-9.14.31-18.28c0-1.28-5.78-.36-5.79,1.56Z"/><path class="cls-1" d="M201.82,159.55q7.74-.59,15.51-.55l-1-.38c-.11,8-.08,16.1-.09,24.15S216.7,199,216,207a8.11,8.11,0,0,1-1.05,3.67,5,5,0,0,1-1.81,1.68l-.19.09c-.48.22-.28.07-.09,0-.26.06-.52.1-.78.14-.78.12-3.17.6-3.4,1.56s1.92.58,2.31.52c3.64-.55,8.31-2.09,10-5.68a11.32,11.32,0,0,0,.82-4c.16-2.28.16-4.58.21-6.86.17-8.54,0-17.09,0-25.63q0-7.74.11-15.46c0-.34-.9-.39-1-.39q-8.39,0-16.75.58c-1.2.09-3,.45-3.88,1.38s.77,1,1.35.91Z"/><path class="cls-1" d="M141.77,158.84a53.78,53.78,0,0,0,.52,22.24,25.29,25.29,0,0,0,4.32,9.44c2.63,3.37,6.46,5.69,10.28,7.5,9,4.27,19.21,5.76,28.71,2.19,7.77-2.92,13-9.42,17-16.41a35.64,35.64,0,0,0,3.53-25.91c-.53-2.26-6.34-.77-5.8,1.55,1.63,7.05,1.31,14.74-1.78,21.35a57.52,57.52,0,0,1-4.34,7.38,25,25,0,0,1-8.13,8c-7.09,4.08-16,2.64-23.17-.47-3.62-1.58-7.3-3.52-10-6.46A20.44,20.44,0,0,1,148.5,181a50.14,50.14,0,0,1-.9-22.82c.43-2.5-5.44-1.59-5.83.62Z"/><path class="cls-1" d="M159.41,83.84c-16.13,1-32.44,3.59-45.85,13.3a56,56,0,0,0-18.13,22.31,110.08,110.08,0,0,0-7.85,27.33,122.68,122.68,0,0,0,5.71,61.33c3.37,9.23,7.89,18.3,14.56,25.59s15.37,12.51,24.58,16.08c19.92,7.72,42,8.1,62.81,4.25,17.88-3.31,36.52-9.77,49.55-23a51.44,51.44,0,0,0,13.28-24.38c2.31-9.62,2.23-19.66,1.37-29.46-.69-7.73-1.43-15.52-2.86-23.15a86.72,86.72,0,0,0-9.29-26.32c-8.66-15.53-22.6-27.58-38.6-35.09a95.73,95.73,0,0,0-39.64-9.08c-3.22,0-6.43.08-9.64.29-1.23.07-3,.88-3.21,2.27s1.57,1.86,2.64,1.79a97.07,97.07,0,0,1,21.46.76,90.33,90.33,0,0,1,17.06,4.45,85.23,85.23,0,0,1,35.53,24.17,76.6,76.6,0,0,1,14.49,25.19,112.54,112.54,0,0,1,5,23.89c2,17.29,4,36-4.31,52.08-7.83,15.08-23.69,23.64-39.32,28.33-18.82,5.65-39.35,7.48-58.68,3.44a78.74,78.74,0,0,1-26.66-10.49,56.16,56.16,0,0,1-18.67-20.5,104.32,104.32,0,0,1-10-27.51,119.9,119.9,0,0,1,1.81-59.3c2.35-8.2,5.45-16.31,10.76-23.09a51.27,51.27,0,0,1,20.91-15.7,77.27,77.27,0,0,1,21.55-5c3-.31,6-.52,9.06-.71,1.23-.08,3-.88,3.21-2.28S160.48,83.77,159.41,83.84Z"/></g></svg>