<?xml version="1.0" encoding="utf-8"?>
<!-- Generator: Adobe Illustrator 24.0.2, SVG Export Plug-In . SVG Version: 6.00 Build 0)  -->
<svg version="1.1" id="Laag_1" xmlns="http://www.w3.org/2000/svg" xmlns:xlink="http://www.w3.org/1999/xlink" x="0px" y="0px"
	 viewBox="0 0 841.9 595.3" style="enable-background:new 0 0 841.9 595.3;" xml:space="preserve">
<style type="text/css">
	.st0{fill:#1D1D1B;stroke:#000000;stroke-width:0.5;stroke-miterlimit:10;}
	.st1{fill:#1D1D1B;stroke:#000000;stroke-width:0.75;stroke-miterlimit:10;}
</style>
<title>Voorpagina koffiekopje</title>
<path class="st0" d="M420.1,353.3c0.5,7.2,1.4,14.3,2.7,21.4c1.1,6.2,2.1,12.6,4.4,18.5c1.7,4.7,4.1,9.2,7.2,13.1
	c3.7,4.5,8.5,7.8,14,9.6c10.2,3.7,21,5.9,31.9,3.8c5-0.8,9.6-2.9,13.4-6.2c4.5-4.1,6.4-9.9,7.7-15.7c1.6-7.6,2.5-15.4,2.7-23.2
	c0.2-4,0.2-8,0.2-12c0.1-1.6,0-3.3-0.3-4.9c-0.5-1.2-1-2.4-1.7-3.5c-0.3-0.6-1.9-0.1-1.7,0.5c0.4,0.9,0.8,1.7,1.2,2.5
	c0.5,1.5,0.7,3.1,0.6,4.7c0,3.4,0,6.7-0.1,10c-0.1,6.7-0.6,13.4-1.5,20c-0.9,6.1-2.1,12.9-5.6,18.1c-3,4.3-7.6,7-12.5,8.3
	c-10.4,2.8-21.1,1-31.1-2.3c-5.6-1.8-10.7-4.3-14.7-8.7c-3.2-3.6-5.8-7.8-7.6-12.3c-2.7-6.1-4.1-12.7-5.4-19.3
	c-1.4-7.5-2.5-15-3.2-22.5C420.7,352.9,420.1,353.1,420.1,353.3L420.1,353.3z"/>
<path class="st1" d="M420.1,354.1c-0.1,1.1,1.6,1.9,2.4,2.2c2.1,0.9,4.2,1.6,6.4,2.2c5.4,1.5,10.8,2.5,16.2,3.6
	c6.8,1.5,13.7,2.5,20.7,3.1c6.1,0.4,12.3-0.2,18.3-1.8c6.6-1.8,12.9-4.6,18.7-8.3c0,0,0.3-0.2,0.1-0.2c-5.7-2-11.6-3.3-17.6-3.9
	c-6-0.7-12.1-1.3-18.1-2.1c-6.1-0.6-12.2-0.7-18.3-0.2c-5.8,0.4-11.5,0.8-17.2,1.5c-2.9,0.3-5.7,0.9-8.5,1.6
	c-1.1,0.3-3.5,0.9-3.7,2.4c0,0.2,1.6,0,1.7-0.5c0.1-1.2,2.5-1.6,3.4-1.8c2.5-0.6,5-1,7.6-1.3c5.3-0.7,10.7-1.1,16-1.4
	c5.8-0.5,11.7-0.4,17.6,0.2c5.6,0.7,11.2,1.3,16.8,1.9c6.5,0.6,12.9,1.9,19.2,3.9l0.1-0.2c-10.2,6.9-22.4,10.2-34.7,9.7
	c-6.6-0.5-13.1-1.4-19.5-2.8c-5.2-1-10.5-2-15.7-3.3c-2.6-0.6-5.2-1.3-7.7-2.2c-1-0.4-3.5-1.1-3.5-2.5
	C420.5,354,420.1,354,420.1,354.1z"/>
<path class="st0" d="M504,370.4c-0.5-1.5,0.2-3.6,1.2-4.8c1.5-1.8,3.8-2.4,6-2.5c2-0.1,4.3-0.2,5.4,1.8c0.7,1.6,1,3.4,1,5.2
	c0.1,4.2-0.4,8.4-1.5,12.5c-0.8,3.3-1.5,6.8-3.3,9.6c-1.1,1.9-2.8,3.3-4.8,4c-2.1,0.8-4.5,0.7-6.7,0.9c-0.2,0-1.2,0.5-0.6,0.5
	c3.8,0.1,8-0.4,11-2.9c3.3-2.7,4.3-7.2,5.2-11.2c1.2-5,2.1-10.2,1.4-15.4c-0.2-1.8-0.7-4.1-2.5-5c-1.6-0.8-3.8-0.5-5.5-0.2
	c-2,0.1-3.9,0.9-5.5,2.2c-0.7,0.7-1.2,1.5-1.5,2.4c-0.3,1-0.1,2.1,0.5,2.9c0,0,0.2,0,0.2,0L504,370.4z"/>
<path class="st0" d="M504,374.8c0.8-0.9,1.7-1.7,2.8-2.4c0.5-0.4,1.1-0.7,1.7-0.9c1.2-0.2,1.2,0.8,1.4,1.5c0.4,2.7,0.5,5.4,0.3,8.2
	c-0.3,4.6-2.3,10.6-7.8,10.8c-0.3,0-0.6,0.5-0.2,0.5c2.4-0.1,4.7-1.3,6.1-3.2c2-2.5,2.5-5.9,2.6-9c0-1.7,0-3.4,0-5
	c0-0.9-0.2-1.8-0.4-2.7c0-0.5-0.3-1-0.6-1.3c-0.8-0.7-2.2,0.2-2.9,0.6c-1.3,0.7-2.5,1.7-3.4,2.9C503.3,375,503.9,375,504,374.8
	L504,374.8z"/>
<path class="st0" d="M440.6,339.2c2.2-5.6,1.9-11.9-0.7-17.3c-1.4-2.8-3.6-4.9-5.8-7c-2.2-2.1-4.3-4.4-6.2-6.9
	c-4-4.9-7-10.5-8.9-16.6c-1.6-5.4-1-13.6,5.3-15.8c2.8-0.9,5.8,0.1,7.6,2.3c0.9,1.1,1.3,2.5,1,3.9c-0.2,1.1-1,2.1-2.2,1.9
	c-0.8-0.1-1.4-0.7-1.5-1.5c0-0.4-0.9-0.2-0.9,0.1c0.1,2.2,2.9,2.7,4.3,1.5c2-1.6,1.5-4.7,0.1-6.5c-3.5-4.5-10.2-3.2-13.4,1
	c-4.5,6-2.1,13.6,0.8,19.7c3.2,6.6,7.6,12.5,12.9,17.5c1.6,1.4,3.1,2.9,4.4,4.6c1.2,1.8,2.2,3.7,2.7,5.8c1.1,4.3,1,8.9-0.3,13.1
	C440,339.4,440.6,339.4,440.6,339.2L440.6,339.2z"/>
<path class="st0" d="M465.9,343.7c0.1-5.4,0.1-10.9-2-16c-1.8-4.4-4.7-8.2-7.6-11.9c-3.1-4-6.3-8.1-8.3-12.9
	c-2-4.9-2.8-10.5-1.3-15.7c1.5-5.2,5.4-9.5,10.5-11.3c0.2-0.1,0.1-0.3-0.1-0.2c-4.2,1.2-7.7,4.1-9.7,7.9c-2.4,4.5-3.1,9.7-1.9,14.6
	c2.2,10.5,10.6,17.4,15.8,26.4c3.4,6,3.9,12.5,4.1,19.2C465.4,344,465.9,343.9,465.9,343.7L465.9,343.7z"/>
<path class="st0" d="M485,345.3c0.3-1.6,0.8-3.2,1.2-4.8l1.1-5.2c0.7-3,1.3-6,1.6-9c0.4-3,0.1-6.1-0.9-8.9c-1-2.4-2.3-4.7-3.9-6.8
	c-3.1-4.3-6.3-8.4-7-13.8c-0.8-5.9,0.7-11.7,0.3-17.5c-0.3-5.1-2-10.5-6.9-13c-0.1-0.1-0.7,0.2-0.6,0.2c4,2.5,5.7,7.2,6.2,11.7
	c0.6,5.6-0.7,11.2-0.4,16.8c0.1,2.8,0.8,5.6,2,8.2c1.2,2.2,2.5,4.3,4.1,6.3c3.3,4.4,6.1,8.7,6.1,14.4c-0.1,3.6-0.6,7.2-1.4,10.7
	l-1,5.2c-0.4,1.9-0.5,3.8-0.9,5.7C484.7,345.4,485,345.3,485,345.3L485,345.3z"/>
<path class="st0" d="M420.3,354c0,0.1-0.1,0.1-0.1,0.2l0,0l0,0l0,0c0,0,0,0.1,0,0.1c0,0.1,0,0.1,0,0.2c0,0.1,0,0.2,0,0.2
	c0,0.1,0.1,0.2,0.2,0.3c0,0.1,0.1,0.1,0.2,0.1c0.1,0,0.2,0,0.3,0c0.2,0,0.3-0.1,0.4-0.3c0.1-0.1,0-0.2-0.1-0.2c0,0,0,0,0,0
	c-0.1,0-0.2,0-0.4,0h0.1h0.1l0,0h0.1l0,0l0,0l-0.1-0.1h-0.1l0.1,0l-0.1-0.1l-0.1-0.1c-0.1-0.1-0.1-0.1-0.1-0.2v0c0,0,0-0.1,0-0.1
	l0-0.1l0,0c0,0,0,0.1,0,0s0,0,0,0l0,0c0,0,0-0.1,0,0c0,0,0-0.1,0-0.1c0,0-0.1,0-0.1,0C420.5,353.9,420.4,354,420.3,354L420.3,354z"
	/>
<path class="st0" d="M419.2,354.3c-0.1,0.2-0.1,0.4,0,0.6c0,0.1,0.1,0.2,0.2,0.3c0.1,0.1,0.2,0.2,0.3,0.2c0.2,0.1,0.4,0.1,0.6,0.2
	c0.1,0,0.2,0,0.4,0h0.2c0.1,0,0,0,0,0c0.1,0,0.3,0,0.3-0.1c0.1-0.1,0-0.2-0.1-0.3c-0.1-0.1-0.3-0.1-0.4-0.2c-0.1,0-0.3-0.1-0.4-0.1
	h0.1c-0.1,0-0.2-0.1-0.2-0.2l0.1,0.1c-0.1-0.1-0.2-0.2-0.2-0.3v0.1c0-0.1-0.1-0.1-0.1-0.2v0.1c0,0,0-0.1,0-0.1v0.1l0,0
	c0-0.1,0-0.2,0-0.2c-0.1-0.1-0.1-0.1-0.2-0.1C419.5,353.9,419.3,354,419.2,354.3L419.2,354.3z"/>
<path class="st0" d="M420.8,354.3c0,0.1,0,0.2,0,0.3c0,0,0.1,0,0.1,0s0,0,0-0.1l0,0l0,0c0,0,0,0,0,0
	C420.8,354.4,420.8,354.4,420.8,354.3L420.8,354.3L420.8,354.3z"/>
<path class="st0" d="M420.9,354.1c-0.1,0.1-0.1,0.1-0.1,0.2c0,0,0,0.1,0,0.1c0,0,0,0,0,0l0,0l0,0c0,0,0,0,0.1,0h0.1h0.1
	c0,0,0,0,0.1-0.1l0,0l0,0c0,0,0,0,0-0.1v-0.1c0,0,0-0.1,0-0.1c0,0,0,0-0.1,0S420.9,354.1,420.9,354.1L420.9,354.1z"/>
<path class="st0" d="M421,354c0,0-0.1,0.1-0.1,0.1c0,0,0,0,0,0c0,0,0,0.1,0,0.1c0,0,0,0.1,0,0.1c0,0,0,0,0,0.1s0,0,0,0.1l0,0l0,0
	c0.1,0,0.1,0,0.2,0c0.1,0,0.1,0,0.1-0.1c0-0.1,0-0.1,0-0.2c0,0,0-0.1,0-0.1l0,0C421.1,354.1,421.1,354.1,421,354L421,354
	C421.1,354,421.1,354,421,354C421.1,353.9,421.1,353.9,421,354L421,354z"/>
<path class="st0" d="M421,354.1c-0.1,0.1-0.2,0.2-0.2,0.4c0,0,0,0,0,0.1s0.1,0,0.1,0c0,0,0.1,0,0.1,0c0,0,0.1,0,0.1-0.1s0,0,0,0l0,0
	c0,0,0,0,0,0c0,0,0-0.1,0-0.1C421.1,354.3,421.1,354.2,421,354.1L421,354.1C421.1,354.1,421.1,354.1,421,354.1L421,354.1z"/>
<path class="st0" d="M421,354c-0.1,0.1-0.2,0.2-0.2,0.3c0,0.1-0.1,0.1-0.1,0.2c0,0.1-0.1,0.1-0.1,0.2c0,0,0,0.1,0,0.1s0,0,0,0
	c0,0,0.1,0,0.1,0c0.1,0,0.3,0,0.4-0.1l0.1-0.1c0,0,0,0,0-0.1s0-0.1,0-0.1c0,0,0-0.1,0-0.1c0-0.1,0-0.1,0-0.2c0-0.1,0-0.2,0-0.3
	C421.2,353.9,421.1,353.9,421,354C421,353.9,421,353.9,421,354L421,354z"/>
<path class="st0" d="M421.1,354l-0.3,0.6c0,0.1,0,0.2,0,0.2c0,0,0,0.1,0,0.1c0,0,0.1,0.1,0.1,0.1c0.1,0,0.2,0,0.2,0
	c0,0,0.1,0,0.1-0.1s0-0.1,0-0.1c0,0,0-0.1,0-0.1c0-0.1,0-0.1,0-0.2c0-0.2,0-0.4,0-0.5C421.2,354,421.1,354,421.1,354L421.1,354z"/>
<path class="st0" d="M421.4,353.2c-0.3,0.2-0.6,0.4-0.8,0.7c-0.2,0.3-0.4,0.6-0.4,0.9c0,0.3,0.2,0.4,0.4,0.5s0.7,0.3,1.1,0.5
	c1.4,0.6,2.9,1.3,4.4,1.8c0.3,0,0.6,0,0.8-0.1c0,0,0.5-0.2,0.3-0.3c-1.3-0.6-2.7-1.1-4-1.7l-1-0.4c-0.2-0.1-0.7-0.2-0.8-0.4
	c-0.1-0.3,0-0.6,0.1-0.9c0.1-0.2,0.3-0.5,0.3-0.7S421.4,353.2,421.4,353.2L421.4,353.2z"/>
<path class="st0" d="M420.1,354.7c-0.3,0.5,0.4,0.9,0.8,1c0.5,0.3,1.1,0.5,1.7,0.6c0.6,0.2,1.1,0.3,1.7,0.5s1.2,0.4,1.9,0.5
	c0.2,0,0.5,0,0.7-0.1c0.1,0,0.4-0.2,0.2-0.3c-0.5-0.3-1-0.5-1.6-0.5l-1.8-0.4c-0.6-0.1-1.1-0.3-1.6-0.5c-0.3-0.1-0.5-0.2-0.8-0.4
	s-0.7-0.2-0.9-0.4C420.4,354.5,420.1,354.6,420.1,354.7L420.1,354.7z"/>
<path class="st0" d="M419.9,355.5c0,0,0.1,0,0.1,0c0,0,0.1,0,0.1,0c0,0,0.1,0,0.1,0l0.1,0l0,0c0,0,0,0,0-0.1l0,0h-0.1H420h-0.1
	l-0.1,0l-0.1,0.1l0,0c0,0,0,0,0,0.1l0,0C419.8,355.5,419.8,355.5,419.9,355.5L419.9,355.5z"/>
<path class="st0" d="M419.9,355.4l-0.1,0.2c0,0.1,0,0.1,0,0.2c0,0.2,0,0.3,0,0.5c0,0.3,0,0.6,0.1,0.9c0,0.1,0.3,0.1,0.3-0.1
	c0-0.3-0.1-0.6-0.1-0.9c0-0.1,0-0.3-0.1-0.5c0-0.1,0-0.1,0-0.2C420,355.5,420,355.4,419.9,355.4L419.9,355.4L419.9,355.4z"/>
<path class="st0" d="M419.2,354.7c-0.1,0.2-0.2,0.5-0.1,0.8c0,0.3,0.1,0.5,0.2,0.8c0.1,0.2,0.1,0.5,0.2,0.8c0,0.3,0.2,0.5,0.3,0.7
	c0,0.1,0.2,0,0.2-0.1c0-0.1,0-0.2-0.1-0.4c0-0.1-0.1-0.2-0.1-0.4c-0.1-0.3-0.1-0.5-0.2-0.8c0-0.3,0-0.5-0.1-0.8
	c0-0.3-0.1-0.5-0.2-0.7C419.3,354.6,419.2,354.6,419.2,354.7C419.2,354.6,419.2,354.6,419.2,354.7L419.2,354.7z"/>
<path class="st0" d="M419.8,355.7c0,0.2,0,0.3,0,0.5c0,0.1,0,0.1,0,0.2s0,0,0,0.1v0c0,0,0,0.1,0.1,0.1c0,0,0.2,0,0.2,0
	c0,0,0-0.1,0.1-0.1c0,0,0-0.1,0-0.1l-0.1-0.2C420,355.9,419.9,355.8,419.8,355.7L419.8,355.7z"/>
<path class="st0" d="M419.7,355.3c0,0.2-0.1,0.4-0.1,0.6c0,0.1,0,0.2,0,0.3c0,0,0,0,0,0.1c0,0,0,0.1,0,0.1v0.1c0,0,0,0.1,0.1,0.1
	c0.1,0,0.1,0,0.2,0c0.1,0,0.1,0,0.2-0.1c0,0,0-0.1,0-0.2c0,0,0-0.1,0-0.1c0,0,0,0,0-0.1c0-0.1-0.1-0.2-0.1-0.3
	c0-0.2-0.1-0.4-0.1-0.6C420,355.2,419.6,355.3,419.7,355.3L419.7,355.3z"/>
<path class="st0" d="M419.6,355.1c0,0.2,0,0.5,0.1,0.7s0,0.2,0,0.4c0,0.1,0,0.1,0.1,0.2v0.1c0,0,0.1,0,0.1,0.1c0.1,0,0.2,0,0.3-0.1
	c0,0,0.1-0.1,0.1-0.1v-0.1c0-0.1,0-0.1,0-0.2c0-0.1-0.1-0.2-0.1-0.3s-0.2-0.5-0.2-0.7S419.5,355,419.6,355.1L419.6,355.1z"/>
<path class="st0" d="M420.1,355.9v0.4v0.2c0,0.1,0,0.1,0,0.2c0,0,0.1,0,0.1,0s0.1,0,0.1,0c0-0.1,0-0.1,0-0.2c0-0.1,0-0.1,0-0.2
	l0-0.4C420.3,355.8,420.1,355.8,420.1,355.9L420.1,355.9z"/>
<path class="st0" d="M420,356.5c0,0.2,0,0.3-0.1,0.5c0,0.1,0,0.3,0,0.4c0,0.1,0,0.1,0,0.2s0,0.1,0.1,0.2c0,0.1,0.1,0.1,0.1,0.2
	c0,0.1,0.1,0.1,0.1,0.2c0,0,0.1,0,0.1,0c0-0.1,0-0.2,0-0.2c0-0.1,0-0.1,0-0.2v-0.2c0-0.1,0-0.1,0-0.2c0-0.1,0-0.1,0-0.2
	c0-0.1,0-0.1-0.1-0.2l-0.1-0.2c0-0.1,0-0.1,0-0.2C420.2,356.5,420.1,356.5,420,356.5L420,356.5z"/>
<path class="st0" d="M420.2,357.6c0,0.1,0,0.2-0.1,0.2c0,0.1,0,0.2,0,0.2c0,0.2,0,0.3,0.1,0.5c0.1,0.3,0.2,0.7,0.3,1
	c0,0,0.1,0.1,0.1,0.1c0,0,0.1,0,0.1-0.1c0-0.3-0.1-0.7-0.2-1c0-0.2-0.1-0.3-0.1-0.5c0-0.1,0-0.2-0.1-0.2
	C420.4,357.8,420.3,357.7,420.2,357.6C420.2,357.7,420.2,357.7,420.2,357.6L420.2,357.6z"/>
<path class="st0" d="M419.9,357.2c-0.1,0.2-0.1,0.4,0,0.7c0,0.2,0.1,0.5,0.1,0.7c0.1,0.5,0.2,0.9,0.3,1.4c0.1,0.2,0.1,0.5,0.2,0.7
	c0,0.2,0.1,0.5,0.1,0.7c0,0.1,0.1,0.2,0.1,0.3c0,0.1,0,0.3,0,0.4c0,0.2,0,0.5,0.1,0.7c0,0,0.2,0,0.2,0c0.1-0.4-0.2-0.9-0.1-1.4
	c0-0.2,0-0.5,0-0.7c0-0.3,0-0.5-0.1-0.8c-0.1-0.5-0.2-0.9-0.4-1.4c-0.1-0.2-0.1-0.5-0.2-0.7c-0.1-0.3-0.1-0.5-0.3-0.6
	C420.1,357.2,420,357.2,419.9,357.2L419.9,357.2z"/>
<path class="st0" d="M426.9,357.1l0.1,0.1l0,0l0,0l0,0c0,0,0.1,0,0.1,0c0,0,0.1,0,0.1,0l0,0c0,0,0,0,0,0l0,0l0,0l0,0h-0.1l0,0l0,0
	H427l0,0l0,0L426.9,357.1z"/>
<path class="st0" d="M426.9,356.9c0.3,0.4,0.7,0.7,1.2,0.9c0.6,0.2,1.1,0.4,1.7,0.6c0.6,0.2,1.2,0.4,1.8,0.5l0.8,0.3
	c0.3,0.1,0.6,0.2,0.8,0.2c0.1,0,0.3-0.1,0.2-0.2c-0.2-0.1-0.4-0.2-0.7-0.3l-0.9-0.3c-0.6-0.2-1.1-0.3-1.7-0.5s-1.1-0.4-1.6-0.6
	s-1-0.5-1.6-0.7C427,356.8,426.8,356.8,426.9,356.9L426.9,356.9z"/>
<path class="st0" d="M437.2,407.8c-1.9-2.2-5.8-1.5-8.4-1.4c-4.5,0.2-9,0.6-13.4,1c-6.6,0.5-13.1,1.2-19.7,1.8
	c-8.6,0.8-17.1,1.3-25.5,3.2c-2.1,0.5-4.3,1-6.4,1.7c-1.5,0.4-2.8,1.1-4,2.1c-2.7,2.7,0.3,5.4,2.8,6.7c3.4,1.6,7.1,2.5,10.8,2.7
	c4.4,0.4,8.8,0.7,13.1,1c9.2,0.7,18.5,1.3,27.7,1.8c18.3,1,36.5,1.7,54.8,2.3c9.2,0.3,18.4,0.6,27.5,0.8c9.1,0.2,18.3,0.6,27.4,0.5
	c9-0.3,17.9-1.2,26.7-2.9c8.5-1.5,17.2-2.8,25.2-6c2-0.8,6.8-3.1,4.3-5.9c-1.2-1.4-3.2-2-4.9-2.4c-2.9-0.7-5.9-1.2-8.9-1.5
	c-10.3-1.4-20.7-2.3-31-3.2s-20.9-1.8-31.4-2.6l-5.2-0.4c-1-0.1-2,1.5-0.7,1.5c8.9,0.7,17.7,1.4,26.6,2.1c10.7,0.9,21.3,1.9,31.9,3
	c4.1,0.5,8.2,0.9,12.3,1.5c2.4,0.3,4.8,0.8,7.1,1.5c1,0.4,3,1.1,2.6,2.5c-0.5,1.6-3.3,2.3-4.7,2.8c-3.9,1.4-7.8,2.5-11.9,3.2
	c-8.3,1.7-16.8,3.3-25.3,4.3c-8.7,0.8-17.4,1.1-26,0.7c-8.8-0.2-17.5-0.4-26.3-0.7c-17.6-0.5-35.2-1-52.8-1.8s-35-1.8-52.5-3.1
	c-3.8-0.1-7.7-0.6-11.4-1.4c-2-0.5-10.1-3.5-6.5-6.5c1.4-1.2,3.5-1.5,5.2-2c2-0.5,4-1,6-1.4c4.2-0.8,8.4-1.4,12.6-1.8
	c7.6-0.8,15.2-1.4,22.8-2.1c8.1-0.8,16.3-1.6,24.5-2c1.5-0.1,2.7-0.1,3.9,1C436.7,408.7,437.6,408.2,437.2,407.8L437.2,407.8z"/>
<path class="st0" d="M194.4,424.2c22.7-2.1,45.6-2.5,68.4-2.3s45.8,0.9,68.7,1.5c12.9,0.3,25.7,0.7,38.6,1.1c0.7,0,1.5-1.1,0.5-1.1
	c-23-0.6-46-1.2-69-1.8c-22.8-0.6-45.6-1.1-68.5-0.5c-12.9,0.3-25.8,1-38.6,2.2C193.8,423.3,193.5,424.3,194.4,424.2L194.4,424.2z"
	/>
<path class="st0" d="M579.6,421.7c2.8,0.1,5.6,0.1,8.5-0.1l9-0.2c6-0.1,11.9-0.2,17.9-0.3c11.9-0.1,23.7-0.2,35.6-0.1
	c23.8,0.2,47.6,0.8,71.3,1.9c13.4,0.6,26.7,1.5,40.1,2.1c0.4,0,1-0.6,0.3-0.6c-11.8-1.2-23.8-1.8-35.6-2.4s-23.8-1.1-35.8-1.4
	c-23.6-0.7-47.2-0.8-70.8-0.5c-6.6,0.1-13.3,0.2-19.9,0.4c-3.4,0.1-6.8,0.2-10.2,0.3c-3.4,0-6.8,0.2-10.2,0.5
	C579.6,421.4,579.4,421.7,579.6,421.7L579.6,421.7z"/>
</svg>
