<svg xmlns="http://www.w3.org/2000/svg" viewBox="0 0 346 339.96"><defs><style>.cls-1{fill:#7e7e7e;}</style></defs><g id="Laag_1" data-name="Laag 1"><path class="cls-1" d="M126.2,155.61c.46,10.12.81,20.23.78,30.36,0,9.53-.37,19.06-.91,28.57-.06,1,1,1.2,1.71,1.19,6.75-.11,13.52-.1,20.28,0,.75,0,2.17-.66,2.16-1.56,0-10-.28-19.91-.23-29.87s.12-20.22.31-30.32c0-1.12-1.09-1.43-2-1.41l-20.15.56c-.92,0-2.26.69-2.37,1.72s1.15,1.39,2,1.37l20.14-.48-2-1.41c-.27,10.11-.42,20.22-.3,30.33.12,9.94.19,19.9.72,29.83l2.17-1.56c-6.77.13-13.54.21-20.31.17l1.71,1.19a312.65,312.65,0,0,0-.64-59.16c-.14-1.24-3-.65-3,.52Z"/><path class="cls-1" d="M137.71,125.24c-5.61-.5-11.47,4.38-12.31,9.85-.62,4,1.4,8.23,4.37,10.91,5,4.48,13,4.8,18,.26s4.24-12.16.38-17.13a11.63,11.63,0,0,0-7.34-4.76,14.27,14.27,0,0,0-10.17,3c-.89.94.27,1.56,1.21,1.4a15.32,15.32,0,0,0,3.66-1.23,4.12,4.12,0,0,1,2.62-.56,7.84,7.84,0,0,1,4.82,2.78c3.37,3.68,5.56,9.31,2.82,14s-8.74,3.92-12.41.75a12.7,12.7,0,0,1-4.28-7.44,9,9,0,0,1,2.06-7c1.67-2,3.86-2.75,6.27-3.43.79-.22,1.54-1.23.27-1.34Z"/><path class="cls-1" d="M157.15,155.7a4.48,4.48,0,0,0-.92,3.14c0,2.08,0,4.14-.15,6.22-.26,4.45,0,8.9-.06,13.35-.12,7.49-.16,15-.32,22.47-.09,4.63-.26,9.27-.49,13.89,0,.43,1.07.36,1.25.36,7.22-.17,14.45-.41,21.67-.52.77,0,3.05-.45,3.08-1.5.19-7.36.1-14.74-.12-22.09-.07-2.69-.24-5.38-.29-8.07-.05-3.27.21-6.89,2.37-9.54a4.7,4.7,0,0,1,3.38-2A7.06,7.06,0,0,1,191,173a11.15,11.15,0,0,1,3.25,4.25,15.73,15.73,0,0,1,.87,5.09c.22,3.51.18,7.05.13,10.57a174.34,174.34,0,0,0,.64,21.44c0,.3.68.4.86.4l13.1-.05c2,0,4.13.13,6.17,0a6.53,6.53,0,0,0,3.37-1.11c.92-.69.75-1.71.78-2.76.09-2.66.17-5.31.24-8,.15-5.23.29-10.47.25-15.7s-.14-10.6-.47-15.89c-.26-4.26-.47-8.37-3.59-11.64-2.42-2.55-5.87-3.77-9.17-4.72a31.26,31.26,0,0,0-12.62-.87,32.69,32.69,0,0,0-19.37,9.78l4.17-.5a20,20,0,0,0,.23-4.77c-.09-1.26-.17-3.2-.93-4.26s-2.44-.72-3.57-.59c-1.69.21-3.39.27-5.08.35a56.12,56.12,0,0,1-7.78.06,7.48,7.48,0,0,0-5.9,1.66c-.75.74.66.87,1.11.85a4.93,4.93,0,0,0,3.05-1.12c.14-.14.05-.1.06-.06.08.41-2.39.24-1.72.59-.13-.07-.13,0,.06,0l.41,0c.73.06,1.46.15,2.19.18,2.44.1,4.88-.18,7.31-.3,1.26-.07,2.52-.13,3.77-.26.66-.07,1.31-.15,2-.24.33,0,.31,0,0,0s-.37,0-.18.22a6,6,0,0,0,.27.68,18.66,18.66,0,0,1,.45,7.69c-.21,1.4,3.71,0,4.17-.5a25.19,25.19,0,0,1,10.38-6.83,23.57,23.57,0,0,1,14.5.31,18.72,18.72,0,0,1,6.6,3.3,11.41,11.41,0,0,1,3.83,7.64c.38,3.35.38,6.78.49,10.14.12,3.65.18,7.29.2,10.94,0,4.13.05,8.26,0,12.4q0,3.22,0,6.44l0,3c0,.86.25,2.24-.21,3l.52-.52-.23.15,2.26-.84c.88-.19.3,0-.08,0H212.5c-4.38,0-8.77,0-13.15,0l1.38.4a163.61,163.61,0,0,1-.93-20.52c0-3.79,0-7.6-.27-11.38a14,14,0,0,0-1.21-5.27A12.63,12.63,0,0,0,194,171c-3.26-2.16-7.47-1.76-10.93-.25a11.37,11.37,0,0,0-6.69,8.53c-.58,3.08-.27,6.2-.12,9.3.42,8.56.46,17.11.59,25.67l3.08-1.51c-7.21.24-14.43.33-21.65.5l1.26.35c.36-7.23.58-14.47.6-21.71,0-3.81,0-7.62,0-11.43,0-4.39-.25-8.75-.36-13.14-.06-2.42.17-4.84,0-7.26-.06-1.31-.6-3.44.33-4.56.48-.58-.42-.65-.82-.64A3.57,3.57,0,0,0,157.15,155.7Z"/><path class="cls-1" d="M159.41,83.84c-16.13,1-32.44,3.59-45.85,13.3a56,56,0,0,0-18.13,22.31,110.08,110.08,0,0,0-7.85,27.33,122.68,122.68,0,0,0,5.71,61.33c3.37,9.23,7.89,18.3,14.56,25.59s15.37,12.51,24.58,16.08c19.92,7.72,42,8.1,62.81,4.25,17.88-3.31,36.52-9.77,49.55-23a51.44,51.44,0,0,0,13.28-24.38c2.31-9.62,2.23-19.66,1.37-29.46-.69-7.73-1.43-15.52-2.86-23.15a86.72,86.72,0,0,0-9.29-26.32c-8.66-15.53-22.6-27.58-38.6-35.09a95.73,95.73,0,0,0-39.64-9.08c-3.22,0-6.43.08-9.64.29-1.23.07-3,.88-3.21,2.27s1.57,1.86,2.64,1.79a97.07,97.07,0,0,1,21.46.76,90.33,90.33,0,0,1,17.06,4.45,85.23,85.23,0,0,1,35.53,24.17,76.6,76.6,0,0,1,14.49,25.19,112.54,112.54,0,0,1,5,23.89c2,17.29,4,36-4.31,52.08-7.83,15.08-23.69,23.64-39.32,28.33-18.82,5.65-39.35,7.48-58.68,3.44a78.74,78.74,0,0,1-26.66-10.49,56.16,56.16,0,0,1-18.67-20.5,104.32,104.32,0,0,1-10-27.51,119.9,119.9,0,0,1,1.81-59.3c2.35-8.2,5.45-16.31,10.76-23.09a51.27,51.27,0,0,1,20.91-15.7,77.27,77.27,0,0,1,21.55-5c3-.31,6-.52,9.06-.71,1.23-.08,3-.88,3.21-2.28S160.48,83.77,159.41,83.84Z"/></g></svg>